STARTFONT 2.1
FONT -Bitstream-Charter-Medium-I-Normal--11-80-100-100-P-60-ISO8859-15
SIZE 8 100 100
FONTBOUNDINGBOX 13 14 -2 -3

STARTPROPERTIES 25
FONTNAME_REGISTRY ""
FAMILY_NAME "Charter"
FOUNDRY "Bitstream"
WEIGHT_NAME "Medium"
SETWIDTH_NAME "Normal"
SLANT "I"
ADD_STYLE_NAME ""
PIXEL_SIZE 11
POINT_SIZE 80
RESOLUTION_X 100
RESOLUTION_Y 100
SPACING "P"
AVERAGE_WIDTH 60
CHARSET_REGISTRY "ISO8859"
CHARSET_ENCODING "15"
CAP_HEIGHT 8
X_HEIGHT 5
CHARSET_COLLECTIONS "ASCII ISOLATIN1"
FACE_NAME "Bitstream Charter Italic"
COPYRIGHT "Copyright 1987 by Bitstream Inc. Charter Registered trademark of Bitstream Inc."
WEIGHT 10
QUAD_WIDTH 7
DEFAULT_CHAR 0
FONT_DESCENT 3
FONT_ASCENT 11
ENDPROPERTIES

CHARS 191

STARTCHAR space
ENCODING 32
SWIDTH 278 0
DWIDTH 3 0
BBX 1 1 0 0
BITMAP
00
ENDCHAR

STARTCHAR exclam
ENCODING 33
SWIDTH 338 0
DWIDTH 4 0
BBX 3 8 1 0
BITMAP
20
60
40
40
40
40
00
C0
ENDCHAR

STARTCHAR quotedbl
ENCODING 34
SWIDTH 331 0
DWIDTH 5 0
BBX 3 3 1 4
BITMAP
A0
A0
A0
ENDCHAR

STARTCHAR numbersign
ENCODING 35
SWIDTH 745 0
DWIDTH 8 0
BBX 7 8 0 -1
BITMAP
14
14
7E
28
FE
48
50
50
ENDCHAR

STARTCHAR dollar
ENCODING 36
SWIDTH 556 0
DWIDTH 6 0
BBX 5 9 0 -1
BITMAP
38
58
60
60
30
A8
B0
60
40
ENDCHAR

STARTCHAR percent
ENCODING 37
SWIDTH 852 0
DWIDTH 9 0
BBX 9 8 0 0
BITMAP
2100
5200
9400
AB00
6A80
1480
2500
4200
ENDCHAR

STARTCHAR ampersand
ENCODING 38
SWIDTH 704 0
DWIDTH 8 0
BBX 7 8 0 0
BITMAP
30
48
48
50
66
94
98
66
ENDCHAR

STARTCHAR quoteright
ENCODING 39
SWIDTH 201 0
DWIDTH 3 0
BBX 2 3 1 4
BITMAP
C0
40
80
ENDCHAR

STARTCHAR parenleft
ENCODING 40
SWIDTH 419 0
DWIDTH 5 0
BBX 4 10 1 -2
BITMAP
10
20
40
40
80
80
80
80
80
40
ENDCHAR

STARTCHAR parenright
ENCODING 41
SWIDTH 419 0
DWIDTH 4 0
BBX 4 10 -1 -2
BITMAP
20
10
10
10
10
10
20
20
40
80
ENDCHAR

STARTCHAR asterisk
ENCODING 42
SWIDTH 500 0
DWIDTH 6 0
BBX 5 4 1 4
BITMAP
20
F8
20
D0
ENDCHAR

STARTCHAR plus
ENCODING 43
SWIDTH 833 0
DWIDTH 9 0
BBX 7 7 1 0
BITMAP
10
10
10
FE
10
10
10
ENDCHAR

STARTCHAR comma
ENCODING 44
SWIDTH 278 0
DWIDTH 3 0
BBX 2 3 -1 -2
BITMAP
40
40
C0
ENDCHAR

STARTCHAR hyphen
ENCODING 45
SWIDTH 319 0
DWIDTH 4 0
BBX 3 1 0 2
BITMAP
E0
ENDCHAR

STARTCHAR period
ENCODING 46
SWIDTH 278 0
DWIDTH 3 0
BBX 1 1 0 0
BITMAP
80
ENDCHAR

STARTCHAR slash
ENCODING 47
SWIDTH 481 0
DWIDTH 5 0
BBX 7 9 -1 -1
BITMAP
02
04
08
08
10
20
20
40
80
ENDCHAR

STARTCHAR zero
ENCODING 48
SWIDTH 556 0
DWIDTH 6 0
BBX 5 8 1 0
BITMAP
30
48
48
88
88
90
90
60
ENDCHAR

STARTCHAR one
ENCODING 49
SWIDTH 556 0
DWIDTH 6 0
BBX 4 8 1 0
BITMAP
30
70
10
20
20
20
20
F0
ENDCHAR

STARTCHAR two
ENCODING 50
SWIDTH 556 0
DWIDTH 6 0
BBX 5 8 0 0
BITMAP
30
48
48
08
10
20
48
F0
ENDCHAR

STARTCHAR three
ENCODING 51
SWIDTH 556 0
DWIDTH 6 0
BBX 6 8 0 0
BITMAP
38
44
0C
30
08
0C
88
70
ENDCHAR

STARTCHAR four
ENCODING 52
SWIDTH 556 0
DWIDTH 6 0
BBX 6 8 0 0
BITMAP
08
18
28
48
48
FC
10
10
ENDCHAR

STARTCHAR five
ENCODING 53
SWIDTH 556 0
DWIDTH 6 0
BBX 6 8 0 0
BITMAP
3C
40
40
70
08
08
90
E0
ENDCHAR

STARTCHAR six
ENCODING 54
SWIDTH 556 0
DWIDTH 6 0
BBX 5 7 0 0
BITMAP
38
40
F0
C8
88
90
60
ENDCHAR

STARTCHAR seven
ENCODING 55
SWIDTH 556 0
DWIDTH 6 0
BBX 7 8 0 0
BITMAP
7E
44
08
08
10
20
40
C0
ENDCHAR

STARTCHAR eight
ENCODING 56
SWIDTH 556 0
DWIDTH 6 0
BBX 5 8 0 0
BITMAP
30
48
48
70
50
88
90
60
ENDCHAR

STARTCHAR nine
ENCODING 57
SWIDTH 556 0
DWIDTH 6 0
BBX 5 8 1 0
BITMAP
30
48
88
98
70
10
20
C0
ENDCHAR

STARTCHAR colon
ENCODING 58
SWIDTH 319 0
DWIDTH 4 0
BBX 2 5 1 0
BITMAP
40
00
00
00
80
ENDCHAR

STARTCHAR semicolon
ENCODING 59
SWIDTH 319 0
DWIDTH 4 0
BBX 3 7 0 -2
BITMAP
60
00
00
00
40
40
80
ENDCHAR

STARTCHAR less
ENCODING 60
SWIDTH 833 0
DWIDTH 9 0
BBX 6 6 1 0
BITMAP
04
38
C0
C0
38
04
ENDCHAR

STARTCHAR equal
ENCODING 61
SWIDTH 833 0
DWIDTH 9 0
BBX 6 3 2 1
BITMAP
FC
00
FC
ENDCHAR

STARTCHAR greater
ENCODING 62
SWIDTH 833 0
DWIDTH 9 0
BBX 6 6 2 0
BITMAP
80
70
0C
0C
70
80
ENDCHAR

STARTCHAR question
ENCODING 63
SWIDTH 486 0
DWIDTH 5 0
BBX 4 8 1 0
BITMAP
60
90
10
20
40
80
00
80
ENDCHAR

STARTCHAR at
ENCODING 64
SWIDTH 942 0
DWIDTH 10 0
BBX 9 9 1 -2
BITMAP
1E00
6100
4E80
9480
A480
A500
9E00
4300
3C00
ENDCHAR

STARTCHAR A
ENCODING 65
SWIDTH 606 0
DWIDTH 7 0
BBX 8 8 -1 0
BITMAP
04
0C
14
12
3E
22
42
C7
ENDCHAR

STARTCHAR B
ENCODING 66
SWIDTH 588 0
DWIDTH 7 0
BBX 6 8 0 0
BITMAP
78
24
2C
38
44
44
48
F0
ENDCHAR

STARTCHAR C
ENCODING 67
SWIDTH 604 0
DWIDTH 7 0
BBX 7 8 0 0
BITMAP
1E
22
40
80
80
80
44
38
ENDCHAR

STARTCHAR D
ENCODING 68
SWIDTH 671 0
DWIDTH 8 0
BBX 7 8 0 0
BITMAP
78
24
22
22
42
44
48
F0
ENDCHAR

STARTCHAR E
ENCODING 69
SWIDTH 546 0
DWIDTH 6 0
BBX 6 8 0 0
BITMAP
7C
24
28
38
48
40
48
F8
ENDCHAR

STARTCHAR F
ENCODING 70
SWIDTH 509 0
DWIDTH 5 0
BBX 6 8 0 0
BITMAP
7C
24
28
38
48
40
40
E0
ENDCHAR

STARTCHAR G
ENCODING 71
SWIDTH 664 0
DWIDTH 7 0
BBX 7 8 0 0
BITMAP
1E
62
40
80
8E
84
44
38
ENDCHAR

STARTCHAR H
ENCODING 72
SWIDTH 712 0
DWIDTH 8 0
BBX 9 8 0 0
BITMAP
7380
2100
2100
3F00
4200
4200
4200
E700
ENDCHAR

STARTCHAR I
ENCODING 73
SWIDTH 313 0
DWIDTH 4 0
BBX 4 8 0 0
BITMAP
70
20
20
20
40
40
40
E0
ENDCHAR

STARTCHAR J
ENCODING 74
SWIDTH 447 0
DWIDTH 5 0
BBX 6 8 -1 0
BITMAP
1C
08
08
08
10
10
90
E0
ENDCHAR

STARTCHAR K
ENCODING 75
SWIDTH 625 0
DWIDTH 7 0
BBX 8 8 0 0
BITMAP
77
22
2C
30
50
48
44
E6
ENDCHAR

STARTCHAR L
ENCODING 76
SWIDTH 498 0
DWIDTH 6 0
BBX 5 8 0 0
BITMAP
70
20
20
40
40
40
48
F8
ENDCHAR

STARTCHAR M
ENCODING 77
SWIDTH 839 0
DWIDTH 9 0
BBX 10 8 0 0
BITMAP
70C0
3180
3180
5280
5500
5500
4900
CB80
ENDCHAR

STARTCHAR N
ENCODING 78
SWIDTH 683 0
DWIDTH 7 0
BBX 8 8 0 0
BITMAP
63
22
32
52
4A
4A
44
C4
ENDCHAR

STARTCHAR O
ENCODING 79
SWIDTH 708 0
DWIDTH 8 0
BBX 8 8 0 0
BITMAP
1C
22
41
81
81
82
44
38
ENDCHAR

STARTCHAR P
ENCODING 80
SWIDTH 542 0
DWIDTH 6 0
BBX 6 8 0 0
BITMAP
78
24
24
48
70
40
40
C0
ENDCHAR

STARTCHAR Q
ENCODING 81
SWIDTH 708 0
DWIDTH 8 0
BBX 8 10 0 -2
BITMAP
18
64
42
82
82
84
4C
38
08
07
ENDCHAR

STARTCHAR R
ENCODING 82
SWIDTH 602 0
DWIDTH 7 0
BBX 7 8 0 0
BITMAP
78
24
24
48
70
48
48
E6
ENDCHAR

STARTCHAR S
ENCODING 83
SWIDTH 537 0
DWIDTH 6 0
BBX 6 8 0 0
BITMAP
3C
44
40
60
18
88
98
60
ENDCHAR

STARTCHAR T
ENCODING 84
SWIDTH 565 0
DWIDTH 6 0
BBX 7 8 0 0
BITMAP
FE
92
10
30
20
20
20
70
ENDCHAR

STARTCHAR U
ENCODING 85
SWIDTH 664 0
DWIDTH 8 0
BBX 7 8 1 0
BITMAP
E6
44
44
84
84
88
88
70
ENDCHAR

STARTCHAR V
ENCODING 86
SWIDTH 590 0
DWIDTH 6 0
BBX 7 8 0 0
BITMAP
C6
44
44
48
48
50
30
20
ENDCHAR

STARTCHAR W
ENCODING 87
SWIDTH 898 0
DWIDTH 10 0
BBX 10 8 1 0
BITMAP
C4C0
4C80
4C80
5500
5500
6600
6600
4400
ENDCHAR

STARTCHAR X
ENCODING 88
SWIDTH 569 0
DWIDTH 6 0
BBX 8 8 -1 0
BITMAP
33
12
14
18
18
28
44
EE
ENDCHAR

STARTCHAR Y
ENCODING 89
SWIDTH 563 0
DWIDTH 6 0
BBX 7 8 0 0
BITMAP
EE
44
48
30
20
20
20
70
ENDCHAR

STARTCHAR Z
ENCODING 90
SWIDTH 556 0
DWIDTH 7 0
BBX 7 8 0 0
BITMAP
3E
44
08
18
30
20
44
FC
ENDCHAR

STARTCHAR bracketleft
ENCODING 91
SWIDTH 421 0
DWIDTH 5 0
BBX 4 9 1 -2
BITMAP
30
40
40
40
40
40
80
80
C0
ENDCHAR

STARTCHAR backslash
ENCODING 92
SWIDTH 481 0
DWIDTH 5 0
BBX 5 9 0 -1
BITMAP
80
40
40
20
20
20
10
10
08
ENDCHAR

STARTCHAR bracketright
ENCODING 93
SWIDTH 421 0
DWIDTH 5 0
BBX 4 9 0 -2
BITMAP
30
10
10
20
20
20
20
20
C0
ENDCHAR

STARTCHAR asciicircum
ENCODING 94
SWIDTH 1000 0
DWIDTH 11 0
BBX 7 3 2 4
BITMAP
38
44
82
ENDCHAR

STARTCHAR underscore
ENCODING 95
SWIDTH 500 0
DWIDTH 6 0
BBX 6 1 0 -3
BITMAP
FC
ENDCHAR

STARTCHAR quoteleft
ENCODING 96
SWIDTH 201 0
DWIDTH 3 0
BBX 2 3 1 4
BITMAP
40
80
C0
ENDCHAR

STARTCHAR a
ENCODING 97
SWIDTH 525 0
DWIDTH 6 0
BBX 5 5 0 0
BITMAP
38
48
88
90
78
ENDCHAR

STARTCHAR b
ENCODING 98
SWIDTH 507 0
DWIDTH 6 0
BBX 5 8 0 0
BITMAP
C0
40
40
70
48
88
90
60
ENDCHAR

STARTCHAR c
ENCODING 99
SWIDTH 394 0
DWIDTH 4 0
BBX 4 5 0 0
BITMAP
30
50
80
90
60
ENDCHAR

STARTCHAR d
ENCODING 100
SWIDTH 523 0
DWIDTH 6 0
BBX 6 8 0 0
BITMAP
0C
04
08
38
48
88
90
6C
ENDCHAR

STARTCHAR e
ENCODING 101
SWIDTH 424 0
DWIDTH 5 0
BBX 4 5 0 0
BITMAP
20
70
C0
90
60
ENDCHAR

STARTCHAR f
ENCODING 102
SWIDTH 292 0
DWIDTH 3 0
BBX 6 11 -2 -3
BITMAP
0C
14
10
38
10
20
20
20
20
40
C0
ENDCHAR

STARTCHAR g
ENCODING 103
SWIDTH 481 0
DWIDTH 6 0
BBX 6 8 0 -3
BITMAP
34
48
48
30
20
D8
88
70
ENDCHAR

STARTCHAR h
ENCODING 104
SWIDTH 551 0
DWIDTH 6 0
BBX 6 8 0 0
BITMAP
60
20
40
58
68
48
50
8C
ENDCHAR

STARTCHAR i
ENCODING 105
SWIDTH 287 0
DWIDTH 3 0
BBX 2 8 1 0
BITMAP
40
00
00
C0
80
80
80
C0
ENDCHAR

STARTCHAR j
ENCODING 106
SWIDTH 269 0
DWIDTH 3 0
BBX 4 11 -1 -3
BITMAP
10
00
00
30
10
20
20
20
20
40
C0
ENDCHAR

STARTCHAR k
ENCODING 107
SWIDTH 514 0
DWIDTH 6 0
BBX 6 8 0 0
BITMAP
60
20
20
4C
50
70
50
8C
ENDCHAR

STARTCHAR l
ENCODING 108
SWIDTH 275 0
DWIDTH 3 0
BBX 2 8 0 0
BITMAP
C0
40
40
40
80
80
80
C0
ENDCHAR

STARTCHAR m
ENCODING 109
SWIDTH 815 0
DWIDTH 9 0
BBX 9 5 0 0
BITMAP
DB00
6D00
4900
8A00
9380
ENDCHAR

STARTCHAR n
ENCODING 110
SWIDTH 556 0
DWIDTH 6 0
BBX 6 5 0 0
BITMAP
D8
68
48
90
9C
ENDCHAR

STARTCHAR o
ENCODING 111
SWIDTH 502 0
DWIDTH 6 0
BBX 5 5 0 0
BITMAP
30
48
88
90
60
ENDCHAR

STARTCHAR p
ENCODING 112
SWIDTH 516 0
DWIDTH 5 0
BBX 6 8 -1 -3
BITMAP
7C
24
44
48
70
40
40
E0
ENDCHAR

STARTCHAR q
ENCODING 113
SWIDTH 512 0
DWIDTH 6 0
BBX 5 8 0 -3
BITMAP
38
48
88
90
70
10
10
38
ENDCHAR

STARTCHAR r
ENCODING 114
SWIDTH 398 0
DWIDTH 4 0
BBX 4 5 0 0
BITMAP
F0
50
40
80
80
ENDCHAR

STARTCHAR s
ENCODING 115
SWIDTH 370 0
DWIDTH 4 0
BBX 4 5 0 0
BITMAP
30
40
20
90
60
ENDCHAR

STARTCHAR t
ENCODING 116
SWIDTH 333 0
DWIDTH 4 0
BBX 3 6 1 0
BITMAP
40
E0
80
80
80
C0
ENDCHAR

STARTCHAR u
ENCODING 117
SWIDTH 553 0
DWIDTH 6 0
BBX 5 5 0 0
BITMAP
C8
48
90
90
F8
ENDCHAR

STARTCHAR v
ENCODING 118
SWIDTH 454 0
DWIDTH 5 0
BBX 5 5 0 0
BITMAP
C8
48
50
50
60
ENDCHAR

STARTCHAR w
ENCODING 119
SWIDTH 713 0
DWIDTH 8 0
BBX 8 5 0 0
BITMAP
C9
49
5A
6A
4C
ENDCHAR

STARTCHAR x
ENCODING 120
SWIDTH 477 0
DWIDTH 5 0
BBX 6 5 -1 0
BITMAP
6C
30
30
50
D8
ENDCHAR

STARTCHAR y
ENCODING 121
SWIDTH 475 0
DWIDTH 6 0
BBX 7 8 -1 -3
BITMAP
62
24
14
18
10
10
A0
C0
ENDCHAR

STARTCHAR z
ENCODING 122
SWIDTH 440 0
DWIDTH 5 0
BBX 5 5 0 0
BITMAP
78
50
20
58
F0
ENDCHAR

STARTCHAR braceleft
ENCODING 123
SWIDTH 486 0
DWIDTH 5 0
BBX 4 9 0 -2
BITMAP
10
20
20
20
C0
20
20
20
10
ENDCHAR

STARTCHAR bar
ENCODING 124
SWIDTH 500 0
DWIDTH 6 0
BBX 1 11 3 -3
BITMAP
80
80
80
80
80
80
80
80
80
80
80
ENDCHAR

STARTCHAR braceright
ENCODING 125
SWIDTH 486 0
DWIDTH 5 0
BBX 4 9 0 -2
BITMAP
80
40
40
40
30
40
40
40
80
ENDCHAR

STARTCHAR c0126
ENCODING 126
SWIDTH 1000 0
DWIDTH 11 0
BBX 7 2 2 5
BITMAP
72
9C
ENDCHAR

STARTCHAR space
ENCODING 160
SWIDTH 278 0
DWIDTH 3 0
BBX 1 1 0 0
BITMAP
00
ENDCHAR

STARTCHAR exclamdown
ENCODING 161
SWIDTH 338 0
DWIDTH 4 0
BBX 3 8 1 0
BITMAP
60
00
40
40
40
40
C0
80
ENDCHAR

STARTCHAR cent
ENCODING 162
SWIDTH 556 0
DWIDTH 6 0
BBX 5 7 0 -1
BITMAP
10
38
68
A0
B0
70
20
ENDCHAR

STARTCHAR sterling
ENCODING 163
SWIDTH 556 0
DWIDTH 6 0
BBX 6 8 0 0
BITMAP
0C
14
20
20
78
40
40
F8
ENDCHAR

STARTCHAR EuroSign
ENCODING 164
SWIDTH 534 0
DWIDTH 6 0
BBX 7 8 0 0
BITMAP
1E
20
F8
40
F0
40
44
78
ENDCHAR

STARTCHAR yen
ENCODING 165
SWIDTH 556 0
DWIDTH 6 0
BBX 7 8 0 0
BITMAP
66
44
28
EC
30
FC
20
70
ENDCHAR

STARTCHAR Scaron
ENCODING 166
SWIDTH 537 0
DWIDTH 6 0
BBX 6 11 0 0
BITMAP
14
08
00
3C
44
40
60
18
88
98
60
ENDCHAR

STARTCHAR section
ENCODING 167
SWIDTH 500 0
DWIDTH 6 0
BBX 6 10 0 -2
BITMAP
3C
44
40
70
88
88
70
10
90
E0
ENDCHAR

STARTCHAR scaron
ENCODING 168
SWIDTH 370 0
DWIDTH 4 0
BBX 4 8 0 0
BITMAP
50
20
00
30
40
20
90
60
ENDCHAR

STARTCHAR copyright
ENCODING 169
SWIDTH 900 0
DWIDTH 10 0
BBX 9 8 1 0
BITMAP
1C00
2200
5D00
A480
A480
5D00
2200
1C00
ENDCHAR

STARTCHAR ordfeminine
ENCODING 170
SWIDTH 394 0
DWIDTH 4 0
BBX 4 4 0 4
BITMAP
30
D0
A0
50
ENDCHAR

STARTCHAR guillemotleft
ENCODING 171
SWIDTH 442 0
DWIDTH 5 0
BBX 5 4 0 0
BITMAP
28
D0
B0
50
ENDCHAR

STARTCHAR logicalnot
ENCODING 172
SWIDTH 833 0
DWIDTH 9 0
BBX 6 3 2 2
BITMAP
FC
04
04
ENDCHAR

STARTCHAR hyphen
ENCODING 173
SWIDTH 319 0
DWIDTH 4 0
BBX 3 1 0 2
BITMAP
E0
ENDCHAR

STARTCHAR registered
ENCODING 174
SWIDTH 900 0
DWIDTH 10 0
BBX 9 8 1 0
BITMAP
1C00
2200
7900
9480
9880
7700
2200
1C00
ENDCHAR

STARTCHAR macron
ENCODING 175
SWIDTH 500 0
DWIDTH 6 0
BBX 4 1 2 6
BITMAP
F0
ENDCHAR

STARTCHAR degree
ENCODING 176
SWIDTH 329 0
DWIDTH 4 0
BBX 3 3 1 4
BITMAP
40
A0
40
ENDCHAR

STARTCHAR plusminus
ENCODING 177
SWIDTH 833 0
DWIDTH 9 0
BBX 7 7 1 -1
BITMAP
10
10
FE
10
10
00
FE
ENDCHAR

STARTCHAR twosuperior
ENCODING 178
SWIDTH 367 0
DWIDTH 4 0
BBX 4 5 0 3
BITMAP
20
50
30
50
E0
ENDCHAR

STARTCHAR threesuperior
ENCODING 179
SWIDTH 367 0
DWIDTH 4 0
BBX 4 5 0 3
BITMAP
60
30
60
10
E0
ENDCHAR

STARTCHAR Zcaron
ENCODING 180
SWIDTH 556 0
DWIDTH 7 0
BBX 7 11 0 0
BITMAP
0A
04
00
3E
44
08
18
30
20
44
FC
ENDCHAR

STARTCHAR mu
ENCODING 181
SWIDTH 548 0
DWIDTH 6 0
BBX 6 8 0 -3
BITMAP
48
48
48
54
A8
80
80
80
ENDCHAR

STARTCHAR paragraph
ENCODING 182
SWIDTH 484 0
DWIDTH 5 0
BBX 5 9 0 -1
BITMAP
78
D0
D0
D0
50
10
10
10
10
ENDCHAR

STARTCHAR periodcentered
ENCODING 183
SWIDTH 278 0
DWIDTH 3 0
BBX 1 1 1 3
BITMAP
80
ENDCHAR

STARTCHAR zcaron
ENCODING 184
SWIDTH 440 0
DWIDTH 5 0
BBX 5 8 0 0
BITMAP
28
10
00
78
50
20
58
F0
ENDCHAR

STARTCHAR onesuperior
ENCODING 185
SWIDTH 367 0
DWIDTH 4 0
BBX 2 5 1 3
BITMAP
40
C0
40
40
C0
ENDCHAR

STARTCHAR ordmasculine
ENCODING 186
SWIDTH 377 0
DWIDTH 4 0
BBX 4 4 0 4
BITMAP
60
90
90
60
ENDCHAR

STARTCHAR guillemotright
ENCODING 187
SWIDTH 442 0
DWIDTH 5 0
BBX 4 4 0 0
BITMAP
A0
50
50
A0
ENDCHAR

STARTCHAR Ligature_OE
ENCODING 188
SWIDTH 891 0
DWIDTH 10 0
BBX 9 8 1 0
BITMAP
1F80
6480
4500
8700
8A00
8800
8880
7F00
ENDCHAR

STARTCHAR Ligature_oe
ENCODING 189
SWIDTH 623 0
DWIDTH 7 0
BBX 6 5 0 0
BITMAP
3C
54
98
B4
D8
ENDCHAR

STARTCHAR Ydiaeresis
ENCODING 190
SWIDTH 563 0
DWIDTH 6 0
BBX 7 10 0 0
BITMAP
0A
00
EE
44
48
30
20
20
20
70
ENDCHAR

STARTCHAR questiondown
ENCODING 191
SWIDTH 486 0
DWIDTH 5 0
BBX 4 8 0 0
BITMAP
10
00
10
20
40
80
90
60
ENDCHAR

STARTCHAR Agrave
ENCODING 192
SWIDTH 606 0
DWIDTH 7 0
BBX 8 11 -1 0
BITMAP
08
04
00
04
0C
14
12
3E
22
42
C7
ENDCHAR

STARTCHAR Aacute
ENCODING 193
SWIDTH 606 0
DWIDTH 7 0
BBX 8 11 -1 0
BITMAP
03
04
00
04
0C
14
12
3E
22
42
C7
ENDCHAR

STARTCHAR Acircumflex
ENCODING 194
SWIDTH 606 0
DWIDTH 7 0
BBX 8 11 -1 0
BITMAP
04
0A
00
04
0C
14
12
3E
22
42
C7
ENDCHAR

STARTCHAR Atilde
ENCODING 195
SWIDTH 606 0
DWIDTH 7 0
BBX 8 10 -1 0
BITMAP
0F
00
04
0C
14
12
3E
22
42
C7
ENDCHAR

STARTCHAR Adieresis
ENCODING 196
SWIDTH 606 0
DWIDTH 7 0
BBX 8 10 -1 0
BITMAP
0A
00
04
0C
14
12
3E
22
42
C7
ENDCHAR

STARTCHAR Aring
ENCODING 197
SWIDTH 606 0
DWIDTH 7 0
BBX 8 10 -1 0
BITMAP
0E
00
04
0C
14
12
3E
22
42
C7
ENDCHAR

STARTCHAR AE
ENCODING 198
SWIDTH 873 0
DWIDTH 10 0
BBX 11 8 -1 0
BITMAP
07E0
0520
0A40
13C0
1E40
2200
4240
C7C0
ENDCHAR

STARTCHAR Ccedilla
ENCODING 199
SWIDTH 604 0
DWIDTH 7 0
BBX 7 11 0 -3
BITMAP
1E
22
40
80
80
80
44
38
18
08
30
ENDCHAR

STARTCHAR Egrave
ENCODING 200
SWIDTH 546 0
DWIDTH 6 0
BBX 6 11 0 0
BITMAP
10
08
00
7C
24
28
38
48
40
48
F8
ENDCHAR

STARTCHAR Eacute
ENCODING 201
SWIDTH 546 0
DWIDTH 6 0
BBX 7 11 0 0
BITMAP
06
08
00
7C
24
28
38
48
40
48
F8
ENDCHAR

STARTCHAR Ecircumflex
ENCODING 202
SWIDTH 546 0
DWIDTH 6 0
BBX 6 11 0 0
BITMAP
08
14
00
7C
24
28
38
48
40
48
F8
ENDCHAR

STARTCHAR Edieresis
ENCODING 203
SWIDTH 546 0
DWIDTH 6 0
BBX 6 10 0 0
BITMAP
14
00
7C
24
28
38
48
40
48
F8
ENDCHAR

STARTCHAR Igrave
ENCODING 204
SWIDTH 313 0
DWIDTH 4 0
BBX 4 11 0 0
BITMAP
40
20
00
70
20
20
20
40
40
40
E0
ENDCHAR

STARTCHAR Iacute
ENCODING 205
SWIDTH 313 0
DWIDTH 4 0
BBX 5 11 0 0
BITMAP
18
20
00
70
20
20
20
40
40
40
E0
ENDCHAR

STARTCHAR Icircumflex
ENCODING 206
SWIDTH 313 0
DWIDTH 4 0
BBX 4 11 0 0
BITMAP
20
50
00
70
20
20
20
40
40
40
E0
ENDCHAR

STARTCHAR Idieresis
ENCODING 207
SWIDTH 313 0
DWIDTH 4 0
BBX 4 10 0 0
BITMAP
50
00
70
20
20
20
40
40
40
E0
ENDCHAR

STARTCHAR Eth
ENCODING 208
SWIDTH 671 0
DWIDTH 8 0
BBX 7 8 0 0
BITMAP
78
26
22
72
42
44
48
F0
ENDCHAR

STARTCHAR Ntilde
ENCODING 209
SWIDTH 683 0
DWIDTH 7 0
BBX 8 10 0 0
BITMAP
1E
00
63
22
32
52
4A
4A
44
C4
ENDCHAR

STARTCHAR Ograve
ENCODING 210
SWIDTH 708 0
DWIDTH 8 0
BBX 8 11 0 0
BITMAP
10
08
00
1C
22
41
81
81
82
44
38
ENDCHAR

STARTCHAR Oacute
ENCODING 211
SWIDTH 708 0
DWIDTH 8 0
BBX 8 11 0 0
BITMAP
06
08
00
1C
22
41
81
81
82
44
38
ENDCHAR

STARTCHAR Ocircumflex
ENCODING 212
SWIDTH 708 0
DWIDTH 8 0
BBX 8 11 0 0
BITMAP
08
14
00
1C
22
41
81
81
82
44
38
ENDCHAR

STARTCHAR Otilde
ENCODING 213
SWIDTH 708 0
DWIDTH 8 0
BBX 8 10 0 0
BITMAP
1E
00
1C
22
41
81
81
82
44
38
ENDCHAR

STARTCHAR Odieresis
ENCODING 214
SWIDTH 708 0
DWIDTH 8 0
BBX 8 10 0 0
BITMAP
14
00
1C
22
41
81
81
82
44
38
ENDCHAR

STARTCHAR multiply
ENCODING 215
SWIDTH 833 0
DWIDTH 9 0
BBX 6 6 2 0
BITMAP
84
48
30
30
48
84
ENDCHAR

STARTCHAR Oslash
ENCODING 216
SWIDTH 708 0
DWIDTH 8 0
BBX 8 9 0 -1
BITMAP
1E
22
45
89
91
A2
44
78
80
ENDCHAR

STARTCHAR Ugrave
ENCODING 217
SWIDTH 664 0
DWIDTH 8 0
BBX 7 11 1 0
BITMAP
20
10
00
E6
44
44
84
84
88
88
70
ENDCHAR

STARTCHAR Uacute
ENCODING 218
SWIDTH 664 0
DWIDTH 8 0
BBX 7 11 1 0
BITMAP
0C
10
00
E6
44
44
84
84
88
88
70
ENDCHAR

STARTCHAR Ucircumflex
ENCODING 219
SWIDTH 664 0
DWIDTH 8 0
BBX 7 11 1 0
BITMAP
10
28
00
E6
44
44
84
84
88
88
70
ENDCHAR

STARTCHAR Udieresis
ENCODING 220
SWIDTH 664 0
DWIDTH 8 0
BBX 7 10 1 0
BITMAP
28
00
E6
44
44
84
84
88
88
70
ENDCHAR

STARTCHAR Yacute
ENCODING 221
SWIDTH 563 0
DWIDTH 6 0
BBX 7 11 0 0
BITMAP
0C
10
00
EE
44
48
30
20
20
20
70
ENDCHAR

STARTCHAR Thorn
ENCODING 222
SWIDTH 532 0
DWIDTH 6 0
BBX 6 8 0 0
BITMAP
70
38
24
24
44
48
70
E0
ENDCHAR

STARTCHAR germandbls
ENCODING 223
SWIDTH 574 0
DWIDTH 7 0
BBX 7 11 -1 -3
BITMAP
0C
12
12
2C
28
26
32
2C
20
40
80
ENDCHAR

STARTCHAR agrave
ENCODING 224
SWIDTH 525 0
DWIDTH 6 0
BBX 5 8 0 0
BITMAP
20
10
00
38
48
88
90
78
ENDCHAR

STARTCHAR aacute
ENCODING 225
SWIDTH 525 0
DWIDTH 6 0
BBX 6 8 0 0
BITMAP
0C
10
00
38
48
88
90
78
ENDCHAR

STARTCHAR acircumflex
ENCODING 226
SWIDTH 525 0
DWIDTH 6 0
BBX 5 8 0 0
BITMAP
10
28
00
38
48
88
90
78
ENDCHAR

STARTCHAR atilde
ENCODING 227
SWIDTH 525 0
DWIDTH 6 0
BBX 6 7 0 0
BITMAP
3C
00
38
48
88
90
78
ENDCHAR

STARTCHAR adieresis
ENCODING 228
SWIDTH 525 0
DWIDTH 6 0
BBX 5 7 0 0
BITMAP
28
00
38
48
88
90
78
ENDCHAR

STARTCHAR aring
ENCODING 229
SWIDTH 525 0
DWIDTH 6 0
BBX 5 8 0 0
BITMAP
38
38
00
38
48
88
90
78
ENDCHAR

STARTCHAR ae
ENCODING 230
SWIDTH 671 0
DWIDTH 7 0
BBX 7 5 0 0
BITMAP
34
5A
7C
92
EC
ENDCHAR

STARTCHAR ccedilla
ENCODING 231
SWIDTH 394 0
DWIDTH 4 0
BBX 4 8 0 -3
BITMAP
30
50
80
90
60
60
20
C0
ENDCHAR

STARTCHAR egrave
ENCODING 232
SWIDTH 424 0
DWIDTH 5 0
BBX 4 8 0 0
BITMAP
20
10
00
20
70
C0
90
60
ENDCHAR

STARTCHAR eacute
ENCODING 233
SWIDTH 424 0
DWIDTH 5 0
BBX 6 8 0 0
BITMAP
0C
10
00
20
70
C0
90
60
ENDCHAR

STARTCHAR ecircumflex
ENCODING 234
SWIDTH 424 0
DWIDTH 5 0
BBX 5 8 0 0
BITMAP
10
28
00
20
70
C0
90
60
ENDCHAR

STARTCHAR edieresis
ENCODING 235
SWIDTH 424 0
DWIDTH 5 0
BBX 5 7 0 0
BITMAP
28
00
20
70
C0
90
60
ENDCHAR

STARTCHAR igrave
ENCODING 236
SWIDTH 287 0
DWIDTH 3 0
BBX 3 8 0 0
BITMAP
40
20
00
C0
40
80
80
E0
ENDCHAR

STARTCHAR iacute
ENCODING 237
SWIDTH 287 0
DWIDTH 3 0
BBX 5 8 0 0
BITMAP
18
20
00
C0
40
80
80
E0
ENDCHAR

STARTCHAR icircumflex
ENCODING 238
SWIDTH 287 0
DWIDTH 3 0
BBX 4 8 0 0
BITMAP
20
50
00
C0
40
80
80
E0
ENDCHAR

STARTCHAR idieresis
ENCODING 239
SWIDTH 287 0
DWIDTH 3 0
BBX 4 7 0 0
BITMAP
50
00
C0
40
80
80
E0
ENDCHAR

STARTCHAR eth
ENCODING 240
SWIDTH 500 0
DWIDTH 6 0
BBX 5 8 0 0
BITMAP
28
30
50
38
48
88
90
60
ENDCHAR

STARTCHAR ntilde
ENCODING 241
SWIDTH 556 0
DWIDTH 6 0
BBX 6 7 0 0
BITMAP
3C
00
D8
68
48
90
9C
ENDCHAR

STARTCHAR ograve
ENCODING 242
SWIDTH 502 0
DWIDTH 6 0
BBX 5 8 0 0
BITMAP
20
10
00
30
48
88
90
60
ENDCHAR

STARTCHAR oacute
ENCODING 243
SWIDTH 502 0
DWIDTH 6 0
BBX 6 8 0 0
BITMAP
0C
10
00
30
48
88
90
60
ENDCHAR

STARTCHAR ocircumflex
ENCODING 244
SWIDTH 502 0
DWIDTH 6 0
BBX 5 8 0 0
BITMAP
10
28
00
30
48
88
90
60
ENDCHAR

STARTCHAR otilde
ENCODING 245
SWIDTH 502 0
DWIDTH 6 0
BBX 6 7 0 0
BITMAP
3C
00
30
48
88
90
60
ENDCHAR

STARTCHAR odieresis
ENCODING 246
SWIDTH 502 0
DWIDTH 6 0
BBX 5 7 0 0
BITMAP
28
00
30
48
88
90
60
ENDCHAR

STARTCHAR divide
ENCODING 247
SWIDTH 833 0
DWIDTH 9 0
BBX 7 5 1 0
BITMAP
10
00
FE
00
10
ENDCHAR

STARTCHAR oslash
ENCODING 248
SWIDTH 502 0
DWIDTH 6 0
BBX 5 7 0 -1
BITMAP
08
30
58
A8
D0
60
80
ENDCHAR

STARTCHAR ugrave
ENCODING 249
SWIDTH 553 0
DWIDTH 6 0
BBX 5 8 0 0
BITMAP
20
10
00
C8
48
90
90
F8
ENDCHAR

STARTCHAR uacute
ENCODING 250
SWIDTH 553 0
DWIDTH 6 0
BBX 6 8 0 0
BITMAP
0C
10
00
C8
48
90
90
F8
ENDCHAR

STARTCHAR ucircumflex
ENCODING 251
SWIDTH 553 0
DWIDTH 6 0
BBX 5 8 0 0
BITMAP
10
28
00
C8
48
90
90
F8
ENDCHAR

STARTCHAR udieresis
ENCODING 252
SWIDTH 553 0
DWIDTH 6 0
BBX 5 7 0 0
BITMAP
28
00
C8
48
90
90
F8
ENDCHAR

STARTCHAR yacute
ENCODING 253
SWIDTH 475 0
DWIDTH 6 0
BBX 7 11 -1 -3
BITMAP
06
08
00
62
24
14
18
10
10
A0
C0
ENDCHAR

STARTCHAR thorn
ENCODING 254
SWIDTH 516 0
DWIDTH 5 0
BBX 6 11 -1 -3
BITMAP
60
20
20
38
24
44
48
70
40
40
E0
ENDCHAR

STARTCHAR ydieresis
ENCODING 255
SWIDTH 475 0
DWIDTH 6 0
BBX 7 10 -1 -3
BITMAP
14
00
62
24
14
18
10
10
A0
C0
ENDCHAR
ENDFONT
